<mxfile host="app.diagrams.net" modified="2024-07-17T18:08:45.659Z" agent="Mozilla/5.0 (X11; Ubuntu; Linux x86_64; rv:128.0) Gecko/20100101 Firefox/128.0" version="24.7.1" etag="ZZjfrmJdBnFqQb4wMjKF" type="github">
  <diagram name="Page-1" id="X8k1iSlAs_I5s1KEsuCr">
    <mxGraphModel>
      <root>
        <mxCell id="0" />
        <mxCell id="1" parent="0" />
      </root>
    </mxGraphModel>
  </diagram>
</mxfile>
